<?xml version="1.0" standalone="no"?>
<!DOCTYPE svg PUBLIC "-//W3C//DTD SVG 20010904//EN"
 "http://www.w3.org/TR/2001/REC-SVG-20010904/DTD/svg10.dtd">
<svg version="1.0" xmlns="http://www.w3.org/2000/svg"
 width="288.000000pt" height="288.000000pt" viewBox="0 0 288.000000 288.000000"
 preserveAspectRatio="xMidYMid meet">
<metadata>
Created by potrace 1.14, written by Peter Selinger 2001-2017
</metadata>
<g transform="translate(0.000000,288.000000) scale(0.100000,-0.100000)"
fill="#000000" stroke="none">
<path d="M160 2056 c0 -41 4 -78 10 -81 5 -3 38 -11 72 -16 34 -6 64 -11 65
-13 3 -2 107 -296 123 -346 4 -14 38 -110 75 -215 37 -104 71 -201 75 -215 5
-14 38 -110 75 -215 37 -104 76 -218 88 -253 l21 -62 164 2 165 3 63 185 c34
102 101 295 147 430 54 158 88 275 96 330 16 110 19 119 31 100 5 -8 17 -40
26 -70 9 -30 32 -102 50 -160 43 -139 166 -536 210 -680 20 -63 37 -121 39
-128 4 -10 41 -12 161 -10 l156 3 38 105 c21 58 93 260 160 450 128 364 167
474 205 580 65 181 48 161 150 179 32 6 63 15 68 20 4 4 7 39 5 77 l-3 69
-285 0 -285 0 -3 -73 c-3 -83 -3 -83 98 -96 30 -4 60 -12 66 -17 11 -9 -5 -69
-122 -459 -31 -105 -46 -175 -76 -372 -5 -38 -13 -68 -18 -68 -4 0 -14 24 -23
53 -16 57 -116 387 -196 649 -28 92 -51 176 -51 187 0 16 9 21 48 26 110 14
107 11 110 98 l3 77 -401 0 -400 0 0 -79 0 -80 58 -6 c88 -10 112 -16 112 -28
0 -6 -47 -153 -104 -327 -68 -206 -108 -344 -115 -400 -20 -139 -26 -165 -36
-163 -5 1 -27 64 -47 140 -44 161 -66 240 -147 533 -33 118 -57 218 -55 221 2
4 25 10 51 13 27 4 65 9 86 12 l37 6 0 79 0 79 -420 0 -420 0 0 -74z"/>
</g>
</svg>
